<?xml version="1.0" encoding="UTF-8"?>
<svg id="Layer_1" data-name="Layer 1" xmlns="http://www.w3.org/2000/svg" viewBox="0 0 198.37 196.02">
  <defs>
    <style>
      .cls-1, .cls-2, .cls-3, .cls-4, .cls-5 {
        stroke-width: 0px;
      }

      .cls-2 {
        fill: #ffb200;
      }

      .cls-3 {
        fill: #00d4d1;
      }

      .cls-4 {
        fill: #006a10;
      }

      .cls-5 {
        fill: #009406;
      }
    </style>
  </defs>
  <circle class="cls-3" cx="99.19" cy="97.95" r="95.04" transform="translate(-40.21 98.82) rotate(-45)"/>
  <circle class="cls-2" cx="83.68" cy="53.05" r="22.97"/>
  <path class="cls-4" d="m151.34,101.36c-14.47,3.08-16.76,35.5-26.71,35.1-10.37-.42-13.87-35.92-22.13-35.86-9.82.07-12.66,50.35-22.89,51.13-13.88,1.05-19.07-90.63-43.5-93.86-8.58-1.13-20.35,8.53-30.36,22.88-1.05,5.67-1.61,11.51-1.61,17.48,0,50.72,39.73,92.15,89.76,94.89,9.07-.31,18.11-1.09,26.83-2.31,31.65-7.34,57.24-30.49,68-60.68-8.87-16.53-26.44-31.1-37.39-28.77Z"/>
  <path class="cls-5" d="m33.46,71.81c13.33,4.38,13.95,82.7,13.88,106.07,12.61,8.22,27.29,13.53,43.09,14.97,3.05-51,7.91-63.26,12.15-63.56,6.92-.48,12.2,30.82,23.5,30.77,11.63-.06,14.78-33.29,29.56-35.34,5.42-.75,13.66,2.52,26.02,20.74,2.79-4.86,5.17-9.98,7.08-15.33-8.87-16.53-26.44-31.1-37.39-28.77-14.47,3.08-16.76,35.5-26.71,35.1-10.37-.42-13.87-35.92-22.13-35.86-9.82.07-12.66,50.35-22.89,51.13-13.88,1.05-19.07-90.63-43.5-93.86-8.58-1.13-20.35,8.53-30.36,22.88-1.05,5.67-1.61,11.51-1.61,17.48,0,7.73.93,15.24,2.67,22.43,7.04-22.31,17.99-51.68,26.65-48.84Z"/>
  <path class="cls-1" d="m114.26,81.03c5.89,2.35,12.26,5.08,18.04,7.72,0,0-2.34.32-2.34.32,3.12-3.75,6.35-7.42,10.66-9.87,1.42-.85,2.88-1.66,4.54-2.26,0,0,.35.36.35.36-2.05,4.56-5.11,8.52-8.95,11.66-1.69,1.3-3.44,2.64-5.05,4.03-.72-.46-4.46-2.82-5.26-3.32-3.99-2.6-8.36-5.48-12.24-8.2,0,0,.24-.44.24-.44h0Z"/>
  <path class="cls-1" d="m84.96,59.58c6.07,1.84,12.65,4.02,18.64,6.16,0,0-2.3.51-2.3.51,2.79-4.01,5.7-7.93,9.79-10.74,1.34-.97,2.73-1.9,4.34-2.63,0,0,.38.33.38.33-1.07,3.25-2.77,6.04-4.72,8.75-1.87,2.67-4.48,4.67-6.77,6.95,0,0-1.13,1.12-1.13,1.12-.76-.4-4.68-2.43-5.53-2.87-4.19-2.25-8.79-4.75-12.89-7.13,0,0,.2-.46.2-.46h0Z"/>
  <path class="cls-1" d="m130.2,38.15c4.68,4.27,9.69,9.07,14.17,13.58,0,0-2.3-.53-2.3-.53,4.25-2.42,8.55-4.71,13.46-5.48,1.63-.3,3.28-.54,5.05-.51,0,0,.2.46.2.46-3.53,3.54-7.78,6.18-12.48,7.76-2.03.62-4.14,1.26-6.14,2-.52-.69-3.18-4.2-3.75-4.96-2.81-3.84-5.89-8.07-8.57-11.98,0,0,.38-.33.38-.33h0Z"/>
  <path class="cls-5" d="m48.86,98.91c-5.6-2.86-12.33-4.78-19.59-5.39-7.28-.61-13.81.19-19.21,1.48v8.5c3.83-.48,8.04-.65,12.54-.27,10.44.88,19.8,4.45,26.25,9.67v-13.99Z"/>
</svg>