<?xml version="1.0" encoding="UTF-8"?>
<svg id="Layer_1" data-name="Layer 1" xmlns="http://www.w3.org/2000/svg" viewBox="0 0 300 200">
  <defs>
    <style>
      .cls-1 {
        fill: none;
      }

      .cls-1, .cls-2 {
        stroke: #fff;
        stroke-miterlimit: 10;
        stroke-width: 15px;
      }

      .cls-2, .cls-3 {
        fill: #fff;
      }

      .cls-3 {
        stroke-width: 0px;
      }
    </style>
  </defs>
  <path class="cls-3" d="m284.91,15h.03s.05.04.06.09v169.85s-.04.05-.09.06H15.06s-.05-.04-.06-.09V15.06s.04-.05.09-.06h269.82m0-15H15.09C6.76,0,0,6.76,0,15.09v169.82c0,8.33,6.76,15.09,15.09,15.09h269.82c8.33,0,15.09-6.76,15.09-15.09V15.09c0-8.33-6.76-15.09-15.09-15.09h0Z"/>
  <path class="cls-1" d="m291,10l-75.99,75.99c-9.72,9.72-25.63,25.63-35.36,35.36l-11.48,11.48c-9.72,9.72-25.63,9.72-35.36,0l-11.48-11.48c-9.72-9.72-25.63-25.63-35.36-35.36L10,10"/>
  <line class="cls-2" x1="12" y1="189" x2="100.5" y2="100.5"/>
  <line class="cls-2" x1="289" y1="189" x2="200.5" y2="100.5"/>
</svg>